{
  "accessors": [
    {
      "name": "Cube-Mesh_0_positions",
      "componentType": 5126,
      "count": 1536,
      "min": [
        -1.3713949918746948,
        -0.8286719918251038,
        -1.3965510129928589
      ],
      "max": [
        1.260329008102417,
        1.6196949481964111,
        1.159978985786438
      ],
      "type": "VEC3",
      "bufferView": 0,
      "byteOffset": 0
    },
    {
      "name": "Cube-Mesh_0_normals",
      "componentType": 5126,
      "count": 1536,
      "min": [
        -0.9997966289520264,
        -0.9999006986618042,
        -0.9984108209609985
      ],
      "max": [
        0.9941469430923462,
        0.989961564540863,
        0.9959807991981506
      ],
      "type": "VEC3",
      "bufferView": 1,
      "byteOffset": 0
    },
    {
      "name": "Cube-Mesh_0_texcoords",
      "componentType": 5126,
      "count": 1536,
      "min": [
        0.125,
        0
      ],
      "max": [
        0.875,
        1
      ],
      "type": "VEC2",
      "bufferView": 2,
      "byteOffset": 0
    },
    {
      "name": "Cube-Mesh_0_indices",
      "componentType": 5123,
      "count": 2304,
      "min": [
        0
      ],
      "max": [
        1535
      ],
      "type": "SCALAR",
      "bufferView": 3,
      "byteOffset": 0
    },
    {
      "name": "Cube.001-Mesh_0_positions",
      "componentType": 5126,
      "count": 1536,
      "min": [
        -4.770072937011719,
        -0.8395059704780579,
        -0.8395059704780579
      ],
      "max": [
        -3.346101999282837,
        0.8278989791870117,
        0.8346030116081238
      ],
      "type": "VEC3",
      "bufferView": 0,
      "byteOffset": 18432
    },
    {
      "name": "Cube.001-Mesh_0_normals",
      "componentType": 5126,
      "count": 1536,
      "min": [
        -0.9927831888198853,
        -0.9927831888198853,
        -0.9927831888198853
      ],
      "max": [
        0.9999942183494568,
        0.9941357970237732,
        0.9901959896087646
      ],
      "type": "VEC3",
      "bufferView": 1,
      "byteOffset": 18432
    },
    {
      "name": "Cube.001-Mesh_0_texcoords",
      "componentType": 5126,
      "count": 1536,
      "min": [
        0.125,
        0
      ],
      "max": [
        0.875,
        1
      ],
      "type": "VEC2",
      "bufferView": 2,
      "byteOffset": 12288
    },
    {
      "name": "Cube.001-Mesh_0_indices",
      "componentType": 5123,
      "count": 2304,
      "min": [
        0
      ],
      "max": [
        1535
      ],
      "type": "SCALAR",
      "bufferView": 3,
      "byteOffset": 4608
    },
    {
      "name": "Cube.002-Mesh_0_positions",
      "componentType": 5126,
      "count": 1536,
      "min": [
        2.80391788482666,
        -0.829039990901947,
        -0.9230200052261353
      ],
      "max": [
        4.482931137084961,
        2.001246929168701,
        0.727105975151062
      ],
      "type": "VEC3",
      "bufferView": 0,
      "byteOffset": 36864
    },
    {
      "name": "Cube.002-Mesh_0_normals",
      "componentType": 5126,
      "count": 1536,
      "min": [
        -0.9959771633148193,
        -0.993218183517456,
        -0.9958317875862122
      ],
      "max": [
        0.9962067008018494,
        0.9638368487358093,
        0.995714008808136
      ],
      "type": "VEC3",
      "bufferView": 1,
      "byteOffset": 36864
    },
    {
      "name": "Cube.002-Mesh_0_texcoords",
      "componentType": 5126,
      "count": 1536,
      "min": [
        0.125,
        0
      ],
      "max": [
        0.875,
        1
      ],
      "type": "VEC2",
      "bufferView": 2,
      "byteOffset": 24576
    },
    {
      "name": "Cube.002-Mesh_0_indices",
      "componentType": 5123,
      "count": 2304,
      "min": [
        0
      ],
      "max": [
        1535
      ],
      "type": "SCALAR",
      "bufferView": 3,
      "byteOffset": 9216
    }
  ],
  "asset": {
    "generator": "obj2gltf",
    "version": "2.0"
  },
  "buffers": [
    {
      "name": "astero",
      "byteLength": 161280,
      "uri": "data:application/octet-stream;base64,"
    }
  ],
  "bufferViews": [
    {
      "name": "bufferView_0",
      "buffer": 0,
      "byteLength": 55296,
      "byteOffset": 0,
      "byteStride": 12,
      "target": 34962
    },
    {
      "name": "bufferView_1",
      "buffer": 0,
      "byteLength": 55296,
      "byteOffset": 55296,
      "byteStride": 12,
      "target": 34962
    },
    {
      "name": "bufferView_2",
      "buffer": 0,
      "byteLength": 36864,
      "byteOffset": 110592,
      "byteStride": 8,
      "target": 34962
    },
    {
      "name": "bufferView_3",
      "buffer": 0,
      "byteLength": 13824,
      "byteOffset": 147456,
      "target": 34963
    }
  ],
  "materials": [
    {
      "name": "default",
      "pbrMetallicRoughness": {
        "baseColorFactor": [
          0.5,
          0.5,
          0.5,
          1
        ],
        "metallicFactor": 0,
        "roughnessFactor": 1
      },
      "emissiveFactor": [
        0,
        0,
        0
      ],
      "alphaMode": "OPAQUE",
      "doubleSided": false
    }
  ],
  "meshes": [
    {
      "name": "Cube-Mesh",
      "primitives": [
        {
          "attributes": {
            "POSITION": 0,
            "NORMAL": 1,
            "TEXCOORD_0": 2
          },
          "indices": 3,
          "material": 0,
          "mode": 4
        }
      ]
    },
    {
      "name": "Cube.001-Mesh",
      "primitives": [
        {
          "attributes": {
            "POSITION": 4,
            "NORMAL": 5,
            "TEXCOORD_0": 6
          },
          "indices": 7,
          "material": 0,
          "mode": 4
        }
      ]
    },
    {
      "name": "Cube.002-Mesh",
      "primitives": [
        {
          "attributes": {
            "POSITION": 8,
            "NORMAL": 9,
            "TEXCOORD_0": 10
          },
          "indices": 11,
          "material": 0,
          "mode": 4
        }
      ]
    }
  ],
  "nodes": [
    {
      "name": "Cube",
      "mesh": 0
    },
    {
      "name": "Cube.001",
      "mesh": 1
    },
    {
      "name": "Cube.002",
      "mesh": 2
    }
  ],
  "scene": 0,
  "scenes": [
    {
      "nodes": [
        0,
        1,
        2
      ]
    }
  ]
}
